<?xml version="1.0" encoding="utf-8"?>
<svg version="1.1" xmlns="http://www.w3.org/2000/svg" xmlns:xlink="http://www.w3.org/1999/xlink" x="0px" y="0px" viewBox="0 0 600 600" style="enable-background:new 0 0 600 600;" xml:space="preserve">
<g id="circles">
&#x9;<g>
&#x9;&#x9;<defs><rect id="SVGID_1_" x="-0.4" width="600" height="600"></rect></defs>
&#x9;&#x9;<clipPath id="SVGID_2_"><use xlink:href="#SVGID_1_" style="overflow:visible;"></use></clipPath>
&#x9;&#x9;<path fill="#47584F" d="M299.6,600c165.69,0,300-134.31,300-300S465.29,0,299.6,0s-300,134.31-300,300S133.92,600,299.6,600"></path>
&#x9;&#x9;<path fill="#FFFFFF" d="M299.6,579.49c154.36,0,279.49-125.13,279.49-279.49S453.96,20.51,299.6,20.51S20.12,145.64,20.12,300S145.25,579.49,299.6,579.49"></path>
&#x9;</g>
</g>
<g id="logo">
&#x9;<path fill="#6E686A" d="M194.76,391.93c6.6-0.62,7.1-1.33,7.1-9.57v-34.02c-11.09,0.4-11.37,0.62-12.58,9.81l-3.33,0.31c0.48-4.44,0.92-9.81,1.05-13.46l0.64-0.62l5.91,0.85h22.03l6.03-0.85l0.64,0.62c0.16,3.65,0.57,9.02,1.07,13.15l-3.33,0.31c-1.42-9.35-1.73-9.57-12.1-10.13c-0.57,6.24-1.14,25.16-1.14,37.84c0,3.82,1.14,5.3,4.04,5.3c1.31,0,2.61-0.08,3.91-0.24l0.22,0.31l-0.64,3.58c-3.06,0-8.03-0.22-10.37-0.22s-6.91,0.16-9.73,0.31L194.76,391.93z"></path>
&#x9;<path fill="#6E686A" d="M228.24,392.49c3.63-0.71,4.54-1.73,4.54-5.18v-24.76c0-2.57-0.41-3.27-2.13-3.27c-0.85,0-2.35,0-2.35,0l-0.14-0.31l0.36-2.95c0.41,0,4.75,0.16,7.24,0.16c2.49,0,7.12-0.55,7.12-0.55l-0.29,3.2c-3.2,0.4-3.91,1.09-4.04,3.46c-0.43,8.35-0.79,20.01-0.79,25.47c0,3.35,0.5,4.2,2.49,4.2c0.98-0.02,1.95-0.09,2.92-0.22l0.14,0.31l-0.5,3.11c0,0-5.18-0.16-7.88-0.16c-2.38,0.07-4.75,0.3-7.1,0.69L228.24,392.49z"></path>
&#x9;<path fill="#6E686A" d="M259.58,364.84h-0.36c0,0-1.73,23.59-1.73,25.14s0.57,1.88,1.85,1.88h2.28l0.14,0.22l-0.48,3.11c0,0-4.06-0.22-6.05-0.22c-1.74,0.04-3.47,0.2-5.18,0.47l0.28-3.2c2.42-0.31,3.35-1.4,3.7-4.6c0.43-3.73,2.49-23.81,2.49-25.61c0-2.11-1.35-2.95-4.91-3.2l-0.21-0.38l0.5-2.57c0,0,4.68,0.31,6.6,0.31s4.63-0.24,4.63-0.24c4.75,16.36,9.16,28.42,9.16,28.42h0.36c0,0,4.34-12.1,9.45-28.27c0.43,0,3.2,0.09,4.68,0.09c1.85,0,6.19-0.4,6.19-0.4l0.14,0.24l-0.38,2.66c-3.33,0.38-4.48,1.24-4.48,3.33s0.85,16.05,1.49,24.07c0.5,4.6,1,5.68,2.85,5.68c0.71,0,1.62-0.09,1.62-0.09l0.14,0.24l-0.48,3.11c0,0-3.46-0.16-5.68-0.16c-2.23,0-6.55,0.47-6.69,0.47l0.28-3.2c2.42-0.31,3.46-1.16,3.46-3.04c0-2.18-1.73-24.36-1.73-24.36h-0.36c-3.27,9.11-6.91,19.85-10.64,30.76l-2.07,0.47C266.54,384.85,262.91,374.1,259.58,364.84z"></path>
&#x9;<path fill="#6E686A" d="M301.79,392.33c3.46-0.47,4.49-1.73,4.49-5.18v-24.67c0-2.64-0.43-3.27-2.14-3.27c-0.64,0-1.92,0-1.92,0l-0.14-0.31l0.43-2.95c0,0,5.05,0.16,8.74,0.16c5.86,0.12,11.72-0.12,17.56-0.71l0.21,0.4c-0.67,3.42-1.12,6.89-1.35,10.37l-3.46,0.31c0,0,0.16-1.73,0.16-2.57c0-3.82-0.71-4.2-8.54-4.2c-3.56,0-3.77,0.16-3.84,2.25L311.57,373h5.82c2.07,0,7.05-0.62,7.05-0.62l0.28,0.38l-0.85,4.04c0,0-4.91-0.14-7.97-0.14c-1.5,0.01-3,0.14-4.48,0.38c-0.21,5.91-0.21,8.73-0.21,10.66c0,3.28,0.35,3.66,4.34,3.66c8.73,0,9.8-0.78,10.73-7.31l3.13-0.31l0.28,0.38c-0.7,3.5-1.22,7.04-1.56,10.59l-0.43,0.38c0,0-11.7-0.1-17.71-0.1c-2.89,0.01-5.78,0.21-8.64,0.62L301.79,392.33z"></path>
&#x9;<path fill="#84A17C" d="M403.31,367.73v0.47l-6.46,7.78l-1.28,0.55l-6.12-0.93c-3.06,11.68-12.92,20.39-23.24,20.39s-16.42-7.46-16.42-19.01c0-11.54,7.83-21.41,15.71-21.41c3.99,0,6.26,2.26,6.26,6c0,1.41-0.4,2.78-1.14,3.97l0.29,0.16c10.37-7.71,15.98-15.34,17.05-23.67l0.5-0.47h1.42c0.84,2.37,1.42,4.82,1.73,7.31c0,1.33-2.56,4.6-3.63,5.84c-5.75,7.24-13.15,13.24-33.26,25.47c1.23,6.53,7.09,11.15,13.72,10.82c8.64,0,14.77-6,16.69-16.12l-4.29-0.6c-1.5,0-5.55,4.91-5.55,4.91h-0.43l-1.85-1.73v-0.4l6.69-7.78l1.14-0.47c3.04,0,11.72,2.18,14.91,2.18c1.14,0,5.34-4.98,5.34-4.98h0.57L403.31,367.73z M366.14,364.15c0.25-1.64-0.88-3.17-2.52-3.42c-0.18-0.03-0.36-0.04-0.54-0.03c-4.61,0-8.64,5.84-8.64,13.82v2.35c9.49-6.19,11.68-8.67,11.68-12.72H366.14z"></path>
&#x9;<path fill="#6E686A" d="M143.58,409.44h-0.36c0,0-2.56,32.62-2.56,34.65c0,1.73,0.71,2.42,2.21,2.42h2.9l0.07,0.33l-0.64,3.46c0,0-4.54-0.31-6.91-0.31c-2.05,0.04-4.09,0.25-6.1,0.62l0.35-3.58c2.99-0.38,4.13-1.73,4.56-6c0.55-5.68,3.04-31.29,3.04-33.63c0-2.73-1.85-3.97-6.1-4.29l-0.22-0.4l0.57-2.73c0,0,5.48,0.4,7.76,0.4s4.82-0.31,4.82-0.31c6.39,22.65,12.1,38.62,12.1,38.62h0.36c0,0,5.55-16.17,12.34-38.52c0,0,3.27,0.16,4.68,0.16c2.13,0,7.67-0.47,7.67-0.47l0.16,0.31l-0.41,2.89c-4.13,0.54-5.62,1.73-5.62,4.29c0,2.25,1.07,20.86,1.85,31.76c0.64,6.07,1.21,7.4,3.46,7.4c0.67-0.01,1.34-0.07,2-0.16l0.14,0.31l-0.64,3.46c0,0-4.2-0.24-6.76-0.24c-2.48,0.07-4.94,0.27-7.4,0.62l0.29-3.58c2.9-0.38,4.18-1.56,4.18-3.89c0-2.64-2.4-33.64-2.4-33.64h-0.36l-13.72,41.47l-1.73,0.55L143.58,409.44z"></path>
&#x9;<path fill="#6E686A" d="M191.41,431.78c0-12.3,8.24-21.32,19.2-21.32c9.95,0,16.55,7.46,16.55,18.77c0,12.3-8.31,21.41-19.4,21.41C197.96,450.63,191.41,443.08,191.41,431.78z M221.05,431.94c0-10.37-4.96-17.12-12.35-17.12c-6.76,0-11.23,5.84-11.23,14.88c0,10.37,4.82,17.28,12.01,17.28C216.36,446.83,221.05,440.97,221.05,431.94L221.05,431.94z"></path>
&#x9;<path fill="#6E686A" d="M262.85,416.83c0-1.73-0.64-2.56-1.92-2.56h-2.13l-0.14-0.31l0.48-3.04c0,0,3.92,0.22,6.05,0.22c2.02-0.05,4.04-0.21,6.05-0.47l-0.29,3.2c-2.7,0.4-3.84,1.49-3.91,3.89l-0.86,33.49l-2.76,0.85c-10.8-17.28-20.55-31.36-20.55-31.36h-0.26l-0.22,23.59c0,1.94,0.5,2.57,1.85,2.57h2.85l0.21,0.24l-0.57,3.11c0,0-3.97-0.24-6.46-0.24c-1.97,0.04-3.94,0.2-5.89,0.47l0.35-3.18c1.91,0.07,3.51-1.42,3.58-3.33c0.01-0.16,0-0.33-0.02-0.49l0.78-25.69c0-2.57-1.14-3.35-4.98-3.82l-0.28-0.38l0.5-2.66c0,0,3.46,0.31,5.39,0.31s4.34-0.22,4.34-0.22c9.18,14.79,18.63,28.42,18.63,28.42H263L262.85,416.83z"></path>
&#x9;<path fill="#6E686A" d="M277.91,447.28c3.46-0.47,4.49-1.64,4.49-5.18V417.4c0-2.64-0.43-3.27-2.14-3.27c-0.64,0-1.92,0-1.92,0l-0.14-0.31l0.43-2.97c0,0,5.05,0.16,8.74,0.16c5.86,0.12,11.72-0.11,17.56-0.69l0.21,0.38c-0.67,3.42-1.12,6.89-1.35,10.37l-3.46,0.31c0,0,0.16-1.73,0.16-2.57c0-3.8-0.73-4.2-8.54-4.2c-3.56,0-3.77,0.16-3.84,2.26l-0.43,11.06h5.82c2.07,0,7.05-0.62,7.05-0.62l0.28,0.4l-0.85,4.04c0,0-4.91-0.16-7.97-0.16c-1.5,0.01-3,0.14-4.48,0.38c-0.21,5.93-0.21,8.73-0.21,10.68c0,3.27,0.35,3.66,4.32,3.66c8.74,0,9.81-0.79,10.75-7.33l3.13-0.31l0.28,0.4c-0.7,3.5-1.22,7.03-1.56,10.57l-0.43,0.4c0,0-11.8-0.4-17.76-0.4c-2.89,0.01-5.78,0.21-8.64,0.62L277.91,447.28z"></path>
&#x9;<path fill="#6E686A" d="M317.15,447.44c4.27-0.78,4.7-1.95,4.7-6.31v-2.42c0.03-2.34-0.57-4.65-1.73-6.69l-5.34-11.21c-2.19-4.6-2.83-6.15-7.17-6.69l-0.14-0.31l0.41-2.82c0,0,4.06,0.16,6.69,0.16c3.2,0,8.54-0.47,8.54-0.47l0.21,0.47l-0.21,2.57c-3.28,0.24-4.2,0.71-4.2,2.11s5.89,14.17,6.12,14.64h0.35l6.12-11.99c0.52-0.9,0.83-1.91,0.92-2.95c0-1.02-1.05-1.56-3.46-1.73l-0.14-0.24l0.35-2.8c0.43,0,4.54,0.38,6.83,0.38s5.55-0.22,5.55-0.22l0.21,0.47l-0.35,2.64c-3.84,0.93-4.56,2.49-7.53,7.86l-5.77,10.75c-1.12,2.26-1.21,4.29-1.21,10.59c0,2.64,0.66,3.58,2.64,3.58c1.14,0,2.83-0.16,2.83-0.16l0.14,0.24l-0.55,3.27c0,0-5.18-0.24-7.97-0.24c-2.43,0.08-4.86,0.31-7.26,0.71L317.15,447.44z"></path>
&#x9;<path fill="#6E686A" d="M349.74,447.12c5.48-0.47,5.84-1.24,5.84-7.08v-25.76c-7.69,0.31-8.64,0.16-9.61,7.78l-3.33,0.24c0,0,0.71-5.93,0.85-11.3l0.57-0.54l5.05,0.62h18.13l5.18-0.62l0.57,0.54c0.16,5.46,0.79,11.06,0.79,11.06l-3.28,0.24c-1.12-7.86-1.99-7.71-9.09-8.02c-0.5,5.05-0.93,18.83-0.93,28.41c0,2.95,0.93,4.13,3.35,4.13c1.04,0.01,2.09-0.04,3.13-0.16l0.21,0.24l-0.5,3.27c0,0-6.19-0.24-8.95-0.24s-8.47,0.31-8.47,0.31L349.74,447.12z"></path>
&#x9;<path fill="#6E686A" d="M399.61,445.1l-5.98-11.44h-4.61l-0.14,8.33c0,4.29,0.41,4.84,4.18,4.91l0.16,0.24l-0.57,2.95c0-0.09-4.98-0.16-7.6-0.16c-2.92,0-6.05,0.22-6.05,0.22l0.5-3.18c3.46-0.47,4.34-1.33,4.34-4.84v-24.83c0-2.57-0.5-3.2-2.06-3.2c-0.79,0-2,0-2,0l-0.21-0.31l0.43-2.97c0,0,4.48,0.16,6.67,0.16s7.6-0.22,7.6-0.22c7.69,0,12.3,3.66,12.3,9.81c0,4.82-3.06,9.02-8.38,11.59l6.03,9.97c2.28,3.73,4.06,5.18,7.05,5.18l0.28,0.4l-0.29,2.56l-5.46,0.62C403.72,450.86,401.39,448.77,399.61,445.1z M400.89,421.76c0-5.06-3.33-7.55-10.16-7.55c-0.79,0-1,0.31-1,1.4c-0.36,5.91-0.57,9.95-0.57,14.01l5.75,0.62c3.63-1.18,6.06-4.6,5.98-8.42V421.76z"></path>
&#x9;<path fill="#6E686A" d="M416.96,447.28c3.46-0.47,4.48-1.64,4.48-5.18V417.4c0-2.64-0.43-3.27-2.14-3.27c-0.64,0-1.92,0-1.92,0l-0.14-0.31l0.43-2.97c0,0,5.05,0.16,8.74,0.16c5.86,0.12,11.72-0.11,17.56-0.69l0.21,0.38c-0.66,3.43-1.11,6.89-1.35,10.37l-3.46,0.31c0,0,0.16-1.73,0.16-2.57c0-3.8-0.71-4.2-8.54-4.2c-3.56,0-3.77,0.16-3.84,2.26l-0.43,11.06h5.84c2.06,0,7.03-0.62,7.03-0.62l0.28,0.4l-0.85,4.04c0,0-4.91-0.16-7.97-0.16c-1.5,0.01-3,0.14-4.48,0.38c-0.21,5.93-0.21,8.73-0.21,10.68c0,3.27,0.35,3.66,4.34,3.66c8.74,0,9.8-0.79,10.73-7.33l3.13-0.31l0.28,0.4c-0.7,3.5-1.22,7.03-1.56,10.57l-0.24,0.64c0,0-11.8-0.4-17.76-0.4c-2.89,0.01-5.78,0.21-8.64,0.62L416.96,447.28z"></path>
&#x9;<path fill="#6E686A" d="M453.06,447.28c3.46-0.47,4.49-1.64,4.49-5.18V417.4c0-2.64-0.43-3.27-2.14-3.27c-0.64,0-1.92,0-1.92,0l-0.07-0.14l0.43-2.97c0,0,5.05,0.16,8.73,0.16c5.87,0.12,11.73-0.11,17.57-0.69l0.21,0.38c-0.67,3.42-1.12,6.89-1.35,10.37l-3.46,0.31c0,0,0.16-1.73,0.16-2.57c0-3.8-0.73-4.2-8.54-4.2c-3.56,0-3.77,0.16-3.84,2.26l-0.43,11.06h5.82c2.07,0,7.05-0.62,7.05-0.62l0.28,0.4l-0.85,4.04c0,0-4.91-0.16-7.97-0.16c-1.5,0.01-3,0.14-4.48,0.38c-0.22,5.93-0.22,8.73-0.22,10.68c0,3.27,0.36,3.66,4.34,3.66c8.74,0,9.81-0.79,10.75-7.33l3.11-0.31l0.29,0.4c-0.7,3.5-1.23,7.03-1.57,10.57l-0.41,0.4c0,0-11.8-0.4-17.78-0.4c-2.89,0.01-5.78,0.21-8.64,0.62L453.06,447.28z"></path>
&#x9;<path fill="#84A17C" d="M369.82,229.37l10.77-0.79c-1.07,6.43-1.81,12.9-2.21,19.4l-1.07,1.18c-7.64,2.71-15.69,4.11-23.79,4.15c-16.69,0-27.85-8.38-31.1-22.81h-10.13l-0.79-0.92l0.79-6.03h9.07v-2.57c0-1.88,0.13-3.77,0.38-5.63h-9.45l-0.79-0.79l0.79-6.03h10.9c4.61-14.55,17.76-23.21,36.03-23.21c6.97,0.22,13.91,1.05,20.74,2.49l0.79,1.45c-1.56,6.37-2.58,12.86-3.02,19.4l-10.66,0.66c0,0,0.14-2.63,0.14-5.37c0-5.91-3.68-8.54-11.7-8.54c-8.64,0-14.2,4.34-16.31,13.12l21.17-0.52l0.79,1.04l-1.45,6.26h-21.43v2.23c0,2.11,0.12,4.2,0.24,6.03h0.54l19.01-0.52l0.78,1.04l-1.31,6.31h-17.62c2.76,8.52,8.42,12.98,16.33,12.98C363.91,243.26,368.11,239.19,369.82,229.37z"></path>
&#x9;<path fill="#6E686A" d="M274.16,243.76c1.73-3.89,4.35-7.31,6.43-11.02c1.4-2.13,2.09-4.64,1.97-7.19c-0.45-3.46-3.28-5.96-5.72-8.43c-2.44-2.47-4.72-5.82-3.75-9.14c2,3.99,4.68,5.06,7.9,8.16c0.53,0.65,1.28,1.07,2.11,1.21c1.83,0.12,2.63,0.41,3.68-1.09c2.11-3.02,6.5-5.93,10.07-5.06c3.58,0.86,4.41,0,8.07,0.1c5.62,0,7.84-4.37,8.76-9.9c2.61-0.21,1.61,6.01,4.2,5.67c0.58-0.16,1.09-0.5,1.47-0.97c1.39-1.36,3.07-2.39,4.91-3.01c1.3-0.45,3.33,0,3.14,1.26c0,0.48-3.04,0.86-3.46,1.19c-2.28,1.9-2.51,3.02-5.27,4.11c-8.1,3.23-10.96,9.11-19.63,8.05c-2.49-0.31-5.48,1.73-7.08,3.72c-0.68,0.98-1.09,2.13-1.17,3.32l-0.97,6.1c-0.29,1.87-0.5,4.03,0.81,5.37c1.26,0.96,2.83,1.4,4.41,1.23l8.29,0.09c6.41,0,14.2-0.67,16.93-6.46c1.52-0.67,2.42,1.95,1.61,3.46s-2.32,2.8-1.95,4.41c0.34,0.97,1.01,1.79,1.9,2.32c1.66,1.41,3.59,2.47,5.67,3.11c4.94,1.11,9.5-2.57,13.6-5.55c4.1-2.97,10.09-5.3,13.82-1.94c-6.1,0.62-11.27,4.56-16.43,7.86c-5.17,3.3-11.37,6.19-17.28,4.44c-1.94-0.57-3.68-1.62-5.56-2.35c-4.33-1.38-8.88-1.9-13.41-1.52c-4.65,0-9.83,0.5-12.91,3.97c-3.46,3.97,0.48,10.25,2.95,14.95c2.47,4.7,6.27,8.64,8.4,13.5c4.42,10.11,0.88,21.7-1.42,32.5c-0.61,2.22-0.73,4.54-0.36,6.81c0.41,2.32,2.18,4.16,4.48,4.67c3.46,0.5,3.2-3.28,6.74-3.66c3.54-0.38,6.12,2.33,9.05,3.96c3.51,1.92,7.63,2.43,11.51,1.42c1.27-0.47,2.59-0.75,3.94-0.85c1.39-0.06,2.64,0.84,3.02,2.18c-3.46-1.37-6.91,1.57-10.57,2c-3.66,0.43-10.26-1.73-13.94-1.87c-1.91,0.06-3.81,0.31-5.67,0.74c-6.19,1.04-9.59,3.18-15.21,0.38c-2.52-1.24-4.98-2.89-7.78-3.08c-2.8-0.19-2.9-1.24-2.64,1.56c0.44,1.97,1.88,3.56,3.8,4.18c1.89,0.59,3.73,1.36,5.48,2.3c-0.52,1.09-5.18,1-6.31,0.43c-0.96-0.75-2.07-1.26-3.27-1.5c-2.73,0-3.32,3.96-2.21,6.43c1.11,2.47,3.01,5.18,1.97,7.64c-2.77-2.79-5-6.07-6.57-9.68c-1.99,0.55-4.11-0.29-5.18-2.06c1.45,0.66,3.17,0.24,4.15-1.02c0.97-1.26,0.36-3.13-0.48-4.48c-1.5-2.44-2.16-5.3-1.85-8.12c0.09-2.95,1.5-5.69,1.23-8.64c-0.12-1.4-0.71-2.71-0.69-4.13c0.1-4.25,4.27-6.91,4.27-11.11c0-2.47-1.61-4.56-2.59-6.79c-0.98-2.23-1.26-5.34,0.55-7.1c0.45,1.95,1.42,3.75,2.8,5.2c0.74,0.71,1.76,1.04,2.78,0.88c2.28-0.5,2.95-3.18,3.56-5.41c0.43-1.6,1.07-3.13,1.9-4.56c1.26-2.13,3.78-3.99,3.51-6.48C275.71,247.64,274.85,245.74,274.16,243.76z"></path>
&#x9;<path fill="#84A17C" d="M260.72,256.43c-2.61,0-5.18-1.83-7.65-1.19c-2.06,0.52-3.35,2.47-4.84,4.01c-3.18,3.05-7.34,4.88-11.73,5.18c-4.36,0.28-8.73-0.05-12.99-0.98c1.08,2.34,0.99,5.06-0.24,7.33c-1.73-1.73-3.02-4.1-5.18-5.51s-5.46-1.42-6.55,0.83c-0.34,1.19-0.55,2.42-0.6,3.66c-0.35,1.5-1.4,2.78-1.62,4.29c-0.22,1.5,1.16,3.46,2.54,2.75c0,0.95-0.31,1.85-0.41,2.78c-0.14,1.47,0.17,2.95,0,4.42s-1.26,2.97-2.73,2.97c-1.83,0-2.73-2.14-3.82-3.59c-1.93-2.22-4.79-3.4-7.72-3.18c-2.89,0.24-5.72,0.95-8.38,2.09c-1.48-0.86-1.98-2.75-1.13-4.23c0.06-0.11,0.13-0.22,0.21-0.32c1.16-1.37,2.7-2.35,4.42-2.83c1.73-0.71,0.98-1.4,2.78-2.09c1.8-0.69,1.54-1.97,1.43-4.01c0-0.88,2.06-1.73,1.73-2.44c-2.25-4.48-3.46-15.67,0.69-18.61c0.3-0.24,0.65-0.41,1.02-0.5c1.85-0.33,2.3-0.12,3.46,1.42c1.21,1.47,3.39,1.69,4.86,0.47c0.55-0.45,0.94-1.05,1.13-1.73c0.33-1.59-0.5-0.69,0-2.25c0.69-2.23,3.91-2.78,5.89-1.54c1.99,1.24,2.95-1.57,3.59,0.67c0.88-0.03,1.61-0.7,1.73-1.57c0.09-0.88,0.03-1.77-0.19-2.63c-0.67-4.08,0.71-3.28,3.61-6.24c0.47-0.47,6.19,4.25,6.91,4.06c3.13-1,4.86,4.18,8.07,4.8c1.21,0.03,2.42-0.08,3.61-0.31c1.23,0,2.71,0.74,2.64,1.99c-0.07,1.24-1.87,1.83-3.21,2.21c-1.35,0.38-2.8,2-1.73,2.94c0.49,0.39,1.15,0.48,1.73,0.24c1.72-0.61,3.33-1.51,4.75-2.66c1.47-1.15,3.4-1.51,5.18-0.95c4.01,1.83,8.92-2.44,12.98,0.62C269.01,249.86,265.39,256.52,260.72,256.43z"></path>
&#x9;<path fill="#84A17C" d="M304.49,192.69c2.64-2.26-3.77-1.88-6.03-1.88s-1.88,3.46-3.77,0.38c-1.52-2.45-3.56-0.21-5.89,0.92c0-0.17,0-0.36,0-0.54c0.62-0.49,1.08-1.15,1.33-1.9c0-0.12,0-0.24,0-0.36c1.35-1.26,3.21-1.99,3.85-3.94c0.47-2.34-0.13-4.77-1.64-6.62c-3.13-3.73-11.34-1.05-6.34,2.52c-0.78,1.24-2.21-0.83-3.7-0.71c0.78,1.33,0.52,2.02-0.29,2.52l-0.57-0.19c-1.66-0.35-3.38,0.2-4.53,1.45c-1.82-0.19-3.53-0.93-4.92-2.11c-0.73-0.72-1.57-1.3-2.51-1.73c-1.9-0.67-15.55,6.46-16.1,8.38c-0.45,2.01,0.29,4.1,1.92,5.37c-7.05,1.11-10.97,1.11-16.69,5.37c-1.11,0.62-1.86,1.72-2.04,2.97c0,1.73,1.94,2.64,3.59,2.87c1.68-0.05,3.33,0.37,4.79,1.21c2,1.73,1.23,5.18-0.81,6.74c-2.2,1.4-4.73,2.18-7.33,2.28c-5.62,0.81-2.59,5.03-7.95,6.91c-1.87,0.43-3.53,1.51-4.68,3.04c-1.01,2.16-0.54,4.72,1.16,6.39c1.64,1.61,3.69,2.74,5.93,3.28c2.32,0.83,4.83,1,7.24,0.5c1.43-0.58,2.9-1.07,4.39-1.49c1.56-0.38,3.16,0.4,3.84,1.85c0.38,1.38-0.55,3.09,0.4,4.16c0.52,0.6,1.42,3.46,2.21,3.58c3.89,0.17,8.45-0.24,11.68-2.83l0.21-6.01c-0.01-0.56,0.1-1.12,0.31-1.64c0.7-0.89,1.75-1.44,2.89-1.49c2.03-0.24,4-0.82,5.82-1.73c1.88-0.92,3.17-2.72,3.46-4.79c0.21-3.01-2.37-5.34-4.22-7.71c-2.71-3.51-4.13-7.85-3.99-12.29c-0.07-1.16,0.3-2.3,1.04-3.2c1.62-1.61,4.44-0.43,6.03,1.23c1.59,1.66,2.94,3.82,5.18,4.34c2.4,0.3,4.6-1.4,4.9-3.8c0.1-0.79-0.02-1.6-0.34-2.33c1.27-0.62,2.65-0.99,4.06-1.07c0.1,1.13,0.57,2.19,1.33,3.02c2.26,1.88,4.53-1.14,6.41,1.12c1.88,2.26,6.39-1.88,7.91-4.89c1.52-3.01,7.52-2.64,7.52-4.53C309.53,193.46,301.86,194.93,304.49,192.69z"></path>
&#x9;<path fill="#3D3530" d="M339.17,198.01c2.34-1.57,2.96-4.74,1.39-7.07c-0.69-1.03-1.73-1.77-2.93-2.08c-2.98-1.23-5.76-2.9-8.22-4.98l0,0c0.97,3.07,1.47,6.28,1.47,9.5c-0.37,2.79,1.6,5.35,4.39,5.72c1.22,0.16,2.46-0.13,3.49-0.81L339.17,198.01z"></path>
&#x9;<circle fill="#3D3530" cx="339.25" cy="198.51" r="1.69"></circle>
&#x9;<path fill="#3D3530" d="M354.22,220.8c1.11-0.74,1.95-3.09-1.14-5.67s-9.59-11.68-10.37-12.91c-0.78-1.23-0.78-2.37-1.12-2.54c-0.42-0.08-0.86-0.08-1.28,0l-0.1-0.12v0.16h-0.19l0.1,0.12c-0.24,0.36-0.41,0.77-0.5,1.19c0,0.38,1.09,0.79,1.92,2s6.74,10.7,7.97,14.55c1.23,3.85,3.68,3.96,4.8,3.21H354.22z"></path>
&#x9;<circle fill="#3D3530" cx="353.18" cy="203.26" r="1.69"></circle>
&#x9;<path fill="#3D3530" d="M357.45,193.17c-1.88-2.81-3.31-5.89-4.25-9.14l0,0c-0.94,3.25-2.38,6.33-4.27,9.14c-0.83,0.97-1.29,2.19-1.33,3.46c0,2.95,2.39,5.34,5.34,5.34h0.52c2.95,0,5.34-2.39,5.34-5.34C358.76,195.35,358.28,194.13,357.45,193.17z M353.35,200.22h-0.35c-2.1-0.02-3.8-1.72-3.82-3.82c0.06-0.99,0.45-1.93,1.11-2.68c1.33-1.87,2.31-3.97,2.9-6.19l0,0l0,0l0,0c0.59,2.22,1.56,4.31,2.89,6.19c0.65,0.77,1.03,1.73,1.09,2.73C357.15,198.55,355.45,200.23,353.35,200.22L353.35,200.22z"></path>
&#x9;<path fill="#3D3530" d="M353.2,220.47c1.33,0,3.33-1.47,2.19-5.34c-0.8-2.19-1.29-4.47-1.47-6.79c0-1.49,0.67-2.42,0.47-2.75c-0.3-0.3-0.66-0.54-1.05-0.71v-0.16h-0.17h-0.17v0.16c-0.4,0.17-0.76,0.41-1.07,0.71c-0.19,0.33,0.48,1.26,0.48,2.75c-0.17,2.32-0.67,4.61-1.49,6.79C349.74,218.92,351.82,220.47,353.2,220.47z"></path>
&#x9;<circle fill="none" stroke="#3D3530" stroke-width="3" stroke-miterlimit="10" cx="353.06" cy="218.9" r="4.67"></circle>
&#x9;<ellipse fill="none" stroke="#3D3530" stroke-width="3" stroke-miterlimit="10" cx="352.01" cy="165.56" rx="7.72" ry="3.44"></ellipse>
&#x9;<ellipse fill="none" stroke="#3D3530" stroke-width="3" stroke-miterlimit="10" cx="405.4" cy="218.9" rx="2.18" ry="3.92"></ellipse>
&#x9;<ellipse fill="none" stroke="#3D3530" stroke-width="3" stroke-miterlimit="10" cx="409.31" cy="218.9" rx="3.44" ry="6.17"></ellipse>
&#x9;<path fill="none" stroke="#3D3530" stroke-width="3" stroke-miterlimit="10" d="M352.01,147.9c-4.58,0-8.29,3.71-8.29,8.29c0,4.58,3.71,8.29,8.29,8.29c4.58,0,8.29-3.71,8.29-8.29C360.3,151.61,356.59,147.9,352.01,147.9L352.01,147.9z M352.01,161c-2.66,0-4.82-2.16-4.82-4.82c0-2.66,2.16-4.82,4.82-4.82c2.66,0,4.82,2.16,4.82,4.82c0,0.01,0,0.01,0,0.02C356.82,158.85,354.66,161,352.01,161z"></path>
&#x9;<circle fill="#3D3530" cx="381.31" cy="232.93" r="1.69"></circle>
&#x9;<path fill="#3D3530" d="M354.25,219.8c-0.4,0.79,0.35,2.63,4.16,3.65c3.82,1.02,16.86,7.12,18.18,7.76c1.31,0.64,1.99,1.45,2.33,1.47c0.34-0.03,0.66-0.14,0.95-0.31h0.14c0-0.05,0-0.09,0-0.14h0.12h-0.16c-0.04-0.33-0.15-0.65-0.33-0.93c-0.24-0.28-1.26-0.28-2.59-0.93c-1.33-0.66-14.19-7.14-17.28-9.5c-3.09-2.37-5.06-1.81-5.44-1.02L354.25,219.8z"></path>
&#x9;<path fill="#3D3530" d="M383.66,234.59c-0.85-0.41-1.43-0.93-1.33-1.16s0.9-0.1,1.73,0.31c1.49,0.7,2.91,1.57,4.22,2.57C386.68,235.9,385.14,235.32,383.66,234.59z"></path>
&#x9;<path fill="none" stroke="#3D3530" stroke-width="3" stroke-miterlimit="10" d="M352.01,165.94c-18.67,0-35.96,9.85-45.48,25.92c2.25,0.08,4.47,0.56,6.55,1.42c14.15-21.53,43.08-27.52,64.61-13.36c21.53,14.15,27.52,43.08,13.36,64.61s-43.08,27.52-64.61,13.36c-3.99-2.62-7.55-5.84-10.56-9.54c-2.59-0.14-5.19-0.1-7.78,0.14c16.36,24.25,49.27,30.65,73.52,14.29c24.25-16.36,30.65-49.27,14.29-73.52c-9.85-14.6-26.3-23.34-43.91-23.34V165.94z"></path>
</g>
</svg>